<mxfile host="app.diagrams.net" agent="Mozilla/5.0 (Windows NT 10.0; Win64; x64; rv:139.0) Gecko/20100101 Firefox/139.0" version="27.1.6">
  <diagram name="Page-1" id="2cBmZcZESoZbDinYJ9an">
    <mxGraphModel dx="1277" dy="777" grid="1" gridSize="10" guides="1" tooltips="1" connect="1" arrows="1" fold="1" page="1" pageScale="1" pageWidth="1169" pageHeight="827" background="#FFFFFF" math="0" shadow="0">
      <root>
        <mxCell id="0" />
        <mxCell id="1" parent="0" />
        <mxCell id="kL_x-0JnZHSc9lDSm8lQ-7" value="" style="rounded=0;whiteSpace=wrap;html=1;" parent="1" vertex="1">
          <mxGeometry x="525" y="600" width="145" height="60" as="geometry" />
        </mxCell>
        <mxCell id="QFwVtOsZBUh-7Sgdq_jM-11" style="edgeStyle=orthogonalEdgeStyle;rounded=0;orthogonalLoop=1;jettySize=auto;html=1;" parent="1" source="kL_x-0JnZHSc9lDSm8lQ-8" edge="1">
          <mxGeometry relative="1" as="geometry">
            <mxPoint x="1020" y="365" as="targetPoint" />
          </mxGeometry>
        </mxCell>
        <mxCell id="kL_x-0JnZHSc9lDSm8lQ-8" value="" style="rounded=0;whiteSpace=wrap;html=1;" parent="1" vertex="1">
          <mxGeometry x="1049" y="335" width="120" height="60" as="geometry" />
        </mxCell>
        <mxCell id="QFwVtOsZBUh-7Sgdq_jM-20" style="edgeStyle=orthogonalEdgeStyle;rounded=0;orthogonalLoop=1;jettySize=auto;html=1;entryX=0.294;entryY=-0.019;entryDx=0;entryDy=0;entryPerimeter=0;exitX=0.134;exitY=1.028;exitDx=0;exitDy=0;exitPerimeter=0;" parent="1" source="kL_x-0JnZHSc9lDSm8lQ-9" edge="1">
          <mxGeometry relative="1" as="geometry">
            <mxPoint x="509.98" y="157.91000000000003" as="targetPoint" />
            <mxPoint x="510" y="100" as="sourcePoint" />
            <Array as="points">
              <mxPoint x="510" y="82" />
            </Array>
          </mxGeometry>
        </mxCell>
        <mxCell id="kL_x-0JnZHSc9lDSm8lQ-9" value="" style="rounded=0;whiteSpace=wrap;html=1;" parent="1" vertex="1">
          <mxGeometry x="480" y="20" width="210" height="60" as="geometry" />
        </mxCell>
        <mxCell id="kL_x-0JnZHSc9lDSm8lQ-74" style="edgeStyle=orthogonalEdgeStyle;rounded=0;orthogonalLoop=1;jettySize=auto;html=1;exitX=0.25;exitY=1;exitDx=0;exitDy=0;entryX=0.5;entryY=0;entryDx=0;entryDy=0;" parent="1" source="kL_x-0JnZHSc9lDSm8lQ-19" target="kL_x-0JnZHSc9lDSm8lQ-73" edge="1">
          <mxGeometry relative="1" as="geometry" />
        </mxCell>
        <mxCell id="QFwVtOsZBUh-7Sgdq_jM-25" style="edgeStyle=orthogonalEdgeStyle;rounded=0;orthogonalLoop=1;jettySize=auto;html=1;entryX=0.5;entryY=1;entryDx=0;entryDy=0;" parent="1" source="kL_x-0JnZHSc9lDSm8lQ-19" target="QFwVtOsZBUh-7Sgdq_jM-22" edge="1">
          <mxGeometry relative="1" as="geometry" />
        </mxCell>
        <mxCell id="kL_x-0JnZHSc9lDSm8lQ-19" value="P0" style="swimlane;whiteSpace=wrap;html=1;rounded=1;startSize=40;" parent="1" vertex="1">
          <mxGeometry x="485" y="280" width="200" height="200" as="geometry" />
        </mxCell>
        <mxCell id="kL_x-0JnZHSc9lDSm8lQ-20" value="INFORMACIJSKI SUSTAV ZA KNJIŽNICU" style="text;html=1;align=center;verticalAlign=middle;whiteSpace=wrap;rounded=0;" parent="kL_x-0JnZHSc9lDSm8lQ-19" vertex="1">
          <mxGeometry x="10" y="60" width="180" height="110" as="geometry" />
        </mxCell>
        <mxCell id="kL_x-0JnZHSc9lDSm8lQ-22" value="KNJIŽNIČAR" style="text;html=1;align=center;verticalAlign=middle;whiteSpace=wrap;rounded=0;fillColor=none;" parent="1" vertex="1">
          <mxGeometry x="1079" y="350" width="60" height="30" as="geometry" />
        </mxCell>
        <mxCell id="kL_x-0JnZHSc9lDSm8lQ-23" value="&lt;span data-darkreader-inline-color=&quot;&quot; style=&quot;color: rgb(0, 0, 0); --darkreader-inline-color: var(--darkreader-text-000000, #e8e6e3);&quot;&gt;SUSTAV ZA AUTENTIFIKACIJU eduID&lt;/span&gt;" style="text;html=1;align=center;verticalAlign=middle;whiteSpace=wrap;rounded=0;" parent="1" vertex="1">
          <mxGeometry x="570" y="615" width="60" height="30" as="geometry" />
        </mxCell>
        <mxCell id="kL_x-0JnZHSc9lDSm8lQ-24" value="&lt;span data-darkreader-inline-color=&quot;&quot; style=&quot;color: rgb(0, 0, 0); --darkreader-inline-color: var(--darkreader-text-000000, #e8e6e3);&quot;&gt;ADMINISTRATOR&lt;/span&gt;" style="text;html=1;align=center;verticalAlign=middle;whiteSpace=wrap;rounded=0;" parent="1" vertex="1">
          <mxGeometry x="550" y="35" width="60" height="30" as="geometry" />
        </mxCell>
        <mxCell id="kL_x-0JnZHSc9lDSm8lQ-66" style="edgeStyle=orthogonalEdgeStyle;rounded=0;orthogonalLoop=1;jettySize=auto;html=1;" parent="1" edge="1">
          <mxGeometry relative="1" as="geometry">
            <mxPoint x="490" y="350" as="targetPoint" />
            <mxPoint x="419.9999999999999" y="350" as="sourcePoint" />
          </mxGeometry>
        </mxCell>
        <mxCell id="kL_x-0JnZHSc9lDSm8lQ-57" value="&lt;div&gt;&lt;font style=&quot;font-size: 10px;&quot;&gt;ZAHTJEV ZA &lt;font&gt;PRIJAVU&lt;/font&gt;&lt;/font&gt;&lt;/div&gt;&lt;div&gt;&lt;font style=&quot;font-size: 10px;&quot;&gt;ZAHTJEV ZA POSUDBU KNJIGE&lt;/font&gt;&lt;/div&gt;&lt;div&gt;&lt;font style=&quot;font-size: 10px;&quot;&gt;ZAHTJEV ZA REZERVACIJU KNJIGE&lt;/font&gt;&lt;/div&gt;&lt;div&gt;&lt;font style=&quot;font-size: 10px;&quot;&gt;UPIT ZA STATUS POSUDBE ILI REZERVACIJE&lt;/font&gt;&lt;/div&gt;&lt;div&gt;&lt;font style=&quot;font-size: 10px;&quot;&gt;ZAHTJEV ZA PRODUŽENJE ROKA POSUDBE&lt;/font&gt;&lt;/div&gt;&lt;div&gt;&lt;font style=&quot;font-size: 10px;&quot;&gt;UPIT ZA PRETRAŽIVANJE KNJIŽNIČNOG FONDA&lt;/font&gt;&lt;/div&gt;&lt;div&gt;&lt;font style=&quot;font-size: 10px;&quot;&gt;&lt;br&gt;&lt;/font&gt;&lt;/div&gt;&lt;div&gt;&lt;font style=&quot;font-size: 10px;&quot;&gt;&lt;br&gt;&lt;br&gt;&lt;br&gt;&lt;/font&gt;&lt;/div&gt;" style="text;html=1;align=center;verticalAlign=middle;whiteSpace=wrap;rounded=0;" parent="1" vertex="1">
          <mxGeometry x="230" y="240" width="190" height="260" as="geometry" />
        </mxCell>
        <mxCell id="kL_x-0JnZHSc9lDSm8lQ-73" value="&lt;font style=&quot;font-size: 10px;&quot;&gt;ZAHTJEV ZA AUTENTIFIKACIJU&lt;/font&gt;" style="text;html=1;align=center;verticalAlign=middle;whiteSpace=wrap;rounded=0;" parent="1" vertex="1">
          <mxGeometry x="500" y="520" width="70" height="30" as="geometry" />
        </mxCell>
        <mxCell id="kL_x-0JnZHSc9lDSm8lQ-75" style="edgeStyle=orthogonalEdgeStyle;rounded=0;orthogonalLoop=1;jettySize=auto;html=1;exitX=0.5;exitY=1;exitDx=0;exitDy=0;entryX=0.078;entryY=0.019;entryDx=0;entryDy=0;entryPerimeter=0;" parent="1" source="kL_x-0JnZHSc9lDSm8lQ-73" target="kL_x-0JnZHSc9lDSm8lQ-7" edge="1">
          <mxGeometry relative="1" as="geometry">
            <Array as="points">
              <mxPoint x="536" y="550" />
              <mxPoint x="536" y="575" />
              <mxPoint x="536" y="575" />
            </Array>
          </mxGeometry>
        </mxCell>
        <mxCell id="kL_x-0JnZHSc9lDSm8lQ-81" style="edgeStyle=orthogonalEdgeStyle;rounded=0;orthogonalLoop=1;jettySize=auto;html=1;" parent="1" source="kL_x-0JnZHSc9lDSm8lQ-77" edge="1">
          <mxGeometry relative="1" as="geometry">
            <mxPoint x="655" y="480" as="targetPoint" />
          </mxGeometry>
        </mxCell>
        <mxCell id="kL_x-0JnZHSc9lDSm8lQ-77" value="&lt;font style=&quot;font-size: 10px;&quot;&gt;POTVRDA AUTENTIFIKACIJE&lt;/font&gt;" style="text;html=1;align=center;verticalAlign=middle;whiteSpace=wrap;rounded=0;" parent="1" vertex="1">
          <mxGeometry x="625" y="520" width="60" height="30" as="geometry" />
        </mxCell>
        <mxCell id="kL_x-0JnZHSc9lDSm8lQ-80" style="edgeStyle=orthogonalEdgeStyle;rounded=0;orthogonalLoop=1;jettySize=auto;html=1;entryX=0.571;entryY=1.057;entryDx=0;entryDy=0;entryPerimeter=0;" parent="1" source="kL_x-0JnZHSc9lDSm8lQ-7" target="kL_x-0JnZHSc9lDSm8lQ-77" edge="1">
          <mxGeometry relative="1" as="geometry">
            <Array as="points">
              <mxPoint x="659" y="575" />
            </Array>
          </mxGeometry>
        </mxCell>
        <mxCell id="QFwVtOsZBUh-7Sgdq_jM-3" value="&lt;div&gt;&lt;font style=&quot;font-size: 10px;&quot;&gt;REZULTATI PRETRAŽIVANJA&lt;/font&gt;&lt;/div&gt;&lt;div&gt;&lt;font style=&quot;font-size: 10px;&quot;&gt;PODSJETNICI&lt;/font&gt;&lt;/div&gt;&lt;div&gt;&lt;font style=&quot;font-size: 10px;&quot;&gt;POTVRDA POSUDBE/REZERVACIJE&lt;/font&gt;&lt;/div&gt;&lt;div&gt;&lt;font style=&quot;font-size: 10px;&quot;&gt;PREGLED TRENUTNIH POSUDBI I REZERVACIJA&lt;/font&gt;&lt;/div&gt;&lt;div&gt;&lt;font style=&quot;font-size: 10px;&quot;&gt;PREGLED PRETHODNIH POSUDBI I REZERVACIJA&lt;/font&gt;&lt;/div&gt;&lt;div&gt;&lt;font style=&quot;font-size: 10px;&quot;&gt;BLOKIRANJE KORISNIKA&lt;/font&gt;&lt;/div&gt;&lt;div&gt;&lt;font style=&quot;font-size: 10px;&quot;&gt;&lt;br&gt;&lt;/font&gt;&lt;/div&gt;" style="text;html=1;align=center;verticalAlign=middle;whiteSpace=wrap;rounded=0;" parent="1" vertex="1">
          <mxGeometry x="200" y="390" width="250" height="210" as="geometry" />
        </mxCell>
        <mxCell id="QFwVtOsZBUh-7Sgdq_jM-4" style="edgeStyle=orthogonalEdgeStyle;rounded=0;orthogonalLoop=1;jettySize=auto;html=1;" parent="1" source="kL_x-0JnZHSc9lDSm8lQ-20" target="QFwVtOsZBUh-7Sgdq_jM-3" edge="1">
          <mxGeometry relative="1" as="geometry" />
        </mxCell>
        <mxCell id="QFwVtOsZBUh-7Sgdq_jM-12" style="edgeStyle=orthogonalEdgeStyle;rounded=0;orthogonalLoop=1;jettySize=auto;html=1;" parent="1" source="QFwVtOsZBUh-7Sgdq_jM-7" edge="1">
          <mxGeometry relative="1" as="geometry">
            <mxPoint x="680" y="370" as="targetPoint" />
          </mxGeometry>
        </mxCell>
        <mxCell id="QFwVtOsZBUh-7Sgdq_jM-7" value="&lt;div&gt;&lt;font style=&quot;font-size: 10px;&quot;&gt;ZAHTJEV ZA UNOS KNJIGA&lt;/font&gt;&lt;/div&gt;&lt;div&gt;&lt;font style=&quot;font-size: 10px;&quot;&gt;ZAHTJEV ZA BRISANJE KNJIGA&lt;/font&gt;&lt;/div&gt;&lt;div&gt;&lt;font style=&quot;font-size: 10px;&quot;&gt;ZAHTJEV ZA UREĐIVANJE KNJIGA&lt;/font&gt;&lt;/div&gt;&lt;div&gt;&lt;font style=&quot;font-size: 10px;&quot;&gt;PRIHVAĆANJE ILI ODBIJANJE REZERVACIJE/POSUDBE&lt;/font&gt;&lt;/div&gt;&lt;div&gt;&lt;font style=&quot;font-size: 10px;&quot;&gt;ZAHTJEV ZA OTPIS KNJIGA&amp;nbsp;&lt;/font&gt;&lt;/div&gt;&lt;div&gt;&lt;font style=&quot;font-size: 10px;&quot;&gt;EVIDENCIJA O NABAVKAMA, DONACIJAMA I RASHODIMA&lt;/font&gt;&lt;/div&gt;&lt;div&gt;&lt;font style=&quot;font-size: 10px;&quot;&gt;DEBLOKIRANJE KORISNIKA&lt;/font&gt;&lt;/div&gt;&lt;div&gt;&lt;font style=&quot;font-size: 10px;&quot;&gt;KREIRANJE IZVJEŠTAJA&lt;/font&gt;&lt;/div&gt;&lt;div&gt;&lt;font style=&quot;font-size: 10px;&quot;&gt;PREGLED IZVJEŠTAJA&lt;/font&gt;&lt;/div&gt;" style="text;html=1;align=center;verticalAlign=middle;whiteSpace=wrap;rounded=0;" parent="1" vertex="1">
          <mxGeometry x="770" y="240" width="240" height="260" as="geometry" />
        </mxCell>
        <mxCell id="QFwVtOsZBUh-7Sgdq_jM-16" style="edgeStyle=orthogonalEdgeStyle;rounded=0;orthogonalLoop=1;jettySize=auto;html=1;" parent="1" source="QFwVtOsZBUh-7Sgdq_jM-13" edge="1">
          <mxGeometry relative="1" as="geometry">
            <mxPoint x="1110" y="400" as="targetPoint" />
          </mxGeometry>
        </mxCell>
        <mxCell id="QFwVtOsZBUh-7Sgdq_jM-13" value="&lt;div&gt;&lt;font style=&quot;font-size: 10px;&quot;&gt;POTVRDA O UNESENOJ KNJIZI&lt;/font&gt;&lt;/div&gt;&lt;div&gt;&lt;font style=&quot;font-size: 10px;&quot;&gt;POTVRDA O OBRISANOJ KNJIZI&lt;/font&gt;&lt;/div&gt;&lt;div&gt;&lt;font style=&quot;font-size: 10px;&quot;&gt;POTVRDA O UREĐIVANJU KNJIGE&lt;/font&gt;&lt;/div&gt;&lt;div&gt;&lt;font style=&quot;font-size: 10px;&quot;&gt;OBAVIJEST O REZERVACIJI KNJIGE&lt;/font&gt;&lt;/div&gt;&lt;div&gt;&lt;font style=&quot;font-size: 10px;&quot;&gt;OBAVIJEST O DIGITALNOJ POSUDBI&lt;/font&gt;&lt;/div&gt;&lt;div&gt;&lt;font style=&quot;font-size: 10px;&quot;&gt;LISTA TRENUTNIH I PRETHODNIH POSUDBI I REZERVACIJA&lt;/font&gt;&lt;/div&gt;&lt;div&gt;&lt;font style=&quot;font-size: 10px;&quot;&gt;IZVJEŠTAJ O NAJČITANIJIM KNJIGAMA&lt;/font&gt;&lt;/div&gt;&lt;div&gt;&lt;font style=&quot;font-size: 10px;&quot;&gt;IZVJEŠTAJ O NABAVKAMA, DONACIJAMA I OTPISIMA&lt;/font&gt;&lt;/div&gt;" style="text;html=1;align=center;verticalAlign=middle;whiteSpace=wrap;rounded=0;" parent="1" vertex="1">
          <mxGeometry x="760" y="405" width="300" height="260" as="geometry" />
        </mxCell>
        <mxCell id="QFwVtOsZBUh-7Sgdq_jM-14" style="edgeStyle=orthogonalEdgeStyle;rounded=0;orthogonalLoop=1;jettySize=auto;html=1;entryX=-0.006;entryY=0.414;entryDx=0;entryDy=0;entryPerimeter=0;" parent="1" source="kL_x-0JnZHSc9lDSm8lQ-20" target="QFwVtOsZBUh-7Sgdq_jM-13" edge="1">
          <mxGeometry relative="1" as="geometry" />
        </mxCell>
        <mxCell id="QFwVtOsZBUh-7Sgdq_jM-17" value="&lt;div&gt;&lt;font style=&quot;font-size: 10px;&quot;&gt;PRAVILA KORIŠTENJA SUSTAVA&lt;/font&gt;&lt;/div&gt;&lt;div&gt;&lt;font style=&quot;font-size: 10px;&quot;&gt;DEFINIRANJE RAZINA SUSTAVA&lt;/font&gt;&lt;/div&gt;&lt;div&gt;&lt;font style=&quot;font-size: 10px;&quot;&gt;NADZIRANJE SIGURNOSTI SUSTAVA&lt;/font&gt;&lt;/div&gt;&lt;div&gt;&lt;font style=&quot;font-size: 10px;&quot;&gt;PREGLED SUSTAVNIH LOGOVA&lt;/font&gt;&lt;/div&gt;" style="text;html=1;align=center;verticalAlign=middle;whiteSpace=wrap;rounded=0;" parent="1" vertex="1">
          <mxGeometry x="460" y="140" width="170" height="110" as="geometry" />
        </mxCell>
        <mxCell id="QFwVtOsZBUh-7Sgdq_jM-19" style="edgeStyle=orthogonalEdgeStyle;rounded=0;orthogonalLoop=1;jettySize=auto;html=1;entryX=0.295;entryY=0;entryDx=0;entryDy=0;entryPerimeter=0;" parent="1" edge="1">
          <mxGeometry relative="1" as="geometry">
            <mxPoint x="510.98360655737713" y="250" as="sourcePoint" />
            <mxPoint x="509.9999999999999" y="280" as="targetPoint" />
          </mxGeometry>
        </mxCell>
        <mxCell id="QFwVtOsZBUh-7Sgdq_jM-26" style="edgeStyle=orthogonalEdgeStyle;rounded=0;orthogonalLoop=1;jettySize=auto;html=1;entryX=1;entryY=0.5;entryDx=0;entryDy=0;" parent="1" source="QFwVtOsZBUh-7Sgdq_jM-22" target="kL_x-0JnZHSc9lDSm8lQ-9" edge="1">
          <mxGeometry relative="1" as="geometry" />
        </mxCell>
        <mxCell id="QFwVtOsZBUh-7Sgdq_jM-22" value="&lt;div&gt;&lt;font style=&quot;font-size: 10px;&quot;&gt;POTVRDA O USPJEŠNIM PROMJENAMA PRAVILA&lt;/font&gt;&lt;/div&gt;&lt;div&gt;&lt;font style=&quot;font-size: 10px;&quot;&gt;UVID U KORISNIČKE RAČUNE&lt;/font&gt;&lt;/div&gt;&lt;div&gt;&lt;font style=&quot;font-size: 10px;&quot;&gt;IZVJEŠTAJ O SIGURNOSTI&lt;/font&gt;&lt;/div&gt;&lt;div&gt;&lt;font style=&quot;font-size: 10px;&quot;&gt;LOGOVI AKTIVNOSTI&lt;/font&gt;&lt;/div&gt;" style="text;html=1;align=center;verticalAlign=middle;whiteSpace=wrap;rounded=0;" parent="1" vertex="1">
          <mxGeometry x="640" y="125" width="200" height="140" as="geometry" />
        </mxCell>
        <mxCell id="QFwVtOsZBUh-7Sgdq_jM-27" value="" style="rounded=0;whiteSpace=wrap;html=1;fillColor=default;strokeColor=default;" parent="1" vertex="1">
          <mxGeometry x="30" y="320" width="120" height="60" as="geometry" />
        </mxCell>
        <mxCell id="QFwVtOsZBUh-7Sgdq_jM-28" style="edgeStyle=orthogonalEdgeStyle;rounded=0;orthogonalLoop=1;jettySize=auto;html=1;entryX=0;entryY=0.423;entryDx=0;entryDy=0;entryPerimeter=0;" parent="1" source="QFwVtOsZBUh-7Sgdq_jM-27" target="kL_x-0JnZHSc9lDSm8lQ-57" edge="1">
          <mxGeometry relative="1" as="geometry" />
        </mxCell>
        <mxCell id="QFwVtOsZBUh-7Sgdq_jM-29" style="edgeStyle=orthogonalEdgeStyle;rounded=0;orthogonalLoop=1;jettySize=auto;html=1;entryX=0.382;entryY=0.992;entryDx=0;entryDy=0;entryPerimeter=0;" parent="1" source="QFwVtOsZBUh-7Sgdq_jM-3" target="QFwVtOsZBUh-7Sgdq_jM-27" edge="1">
          <mxGeometry relative="1" as="geometry" />
        </mxCell>
        <mxCell id="QFwVtOsZBUh-7Sgdq_jM-30" value="STUDENT" style="text;html=1;align=center;verticalAlign=middle;whiteSpace=wrap;rounded=0;" parent="1" vertex="1">
          <mxGeometry x="60" y="335" width="60" height="30" as="geometry" />
        </mxCell>
      </root>
    </mxGraphModel>
  </diagram>
</mxfile>
